<?xml version="1.0" standalone="no"?>
<!DOCTYPE svg PUBLIC "-//W3C//DTD SVG 1.1//EN" "http://www.w3.org/Graphics/SVG/1.1/DTD/svg11.dtd">
<svg xmlns:dc="http://purl.org/dc/elements/1.1/" xmlns:cc="http://creativecommons.org/ns#" xmlns:rdf="http://www.w3.org/1999/02/22-rdf-syntax-ns#" xmlns:svg="http://www.w3.org/2000/svg" xmlns="http://www.w3.org/2000/svg" xmlns:sodipodi="http://sodipodi.sourceforge.net/DTD/sodipodi-0.dtd" xmlns:inkscape="http://www.inkscape.org/namespaces/inkscape" width="500" height="500" viewBox="0 0 500 500" version="1.1" id="svg913" inkscape:version="0.92.4 (5da689c313, 2019-01-14)" sodipodi:docname="logo.svg">
  <defs id="defs907"/>
  <sodipodi:namedview id="base" pagecolor="#ffffff" bordercolor="#666666" borderopacity="1.0" inkscape:pageopacity="0.0" inkscape:pageshadow="2" inkscape:zoom="0.49497475" inkscape:cx="807.43103" inkscape:cy="900.62198" inkscape:document-units="mm" inkscape:current-layer="layer1" showgrid="false" inkscape:window-width="1920" inkscape:window-height="1017" inkscape:window-x="-8" inkscape:window-y="-8" inkscape:window-maximized="1" showguides="false"/>
  <metadata id="metadata910">
    <rdf:RDF>
      <cc:Work rdf:about="">
        <dc:format>image/svg+xml</dc:format>
        <dc:type rdf:resource="http://purl.org/dc/dcmitype/StillImage"/>
        <dc:title/>
      </cc:Work>
    </rdf:RDF>
  </metadata>
  <g inkscape:label="Capa 1" inkscape:groupmode="layer" id="layer1" transform="translate(0,203)">
    <path id="path4579-8-3-8-5-3-0-6" style="fill:#14c69b;fill-opacity:1;stroke:none;stroke-width:4.0046277;stroke-miterlimit:4;stroke-dasharray:none;stroke-opacity:1" d="m 259.47071,-86.956956 c -23.04921,0.168196 -44.17788,12.165899 -84.40571,46.633847 -7.25795,6.218727 -15.22524,12.909677 -17.7033,14.867308 -4.55025,3.594496 -10.94735,9.398103 -27.0733,24.55870895 C 125.43157,3.6690976 109.53776,18.406524 94.967054,31.856462 69.8352,55.054527 38.102158,85.703619 32.366251,92.316853 30.91403,93.991004 30.42368,95.35853 31.27331,95.35853 c 0.849661,0 22.269259,-13.89425 47.600683,-30.87616 25.331617,-16.981887 50.287337,-33.223623 55.455517,-36.093913 5.16824,-2.870229 14.83746,-9.134943 21.48549,-13.918531 6.64819,-4.7836399 14.71777,-10.2607529 17.93793,-12.1744498 3.22008,-1.91346924 10.87464,-7.2956339 17.0093,-11.9610265 6.13465,-4.6653347 13.80503,-9.5020027 17.04289,-10.7497327 3.23797,-1.247724 8.89132,-4.25922 12.56668,-6.690029 15.84965,-10.482455 42.05906,-12.578365 59.05891,-4.724259 4.38526,2.026284 9.11405,3.683494 10.5079,3.683494 1.39401,0 8.2104,3.515873 15.14791,7.810894 6.93767,4.294791 13.42978,7.815247 14.43013,7.828463 2.19711,0.01717 21.38513,11.3030076 29.60491,17.4066884 3.25056,2.4137038 10.7547,6.4163756 16.67857,8.8960986 35.09529,14.690291 33.66585,14.283065 52.47845,15.095201 10.16272,0.438222 20.53501,-0.01746 23.54998,-1.023191 2.96314,-0.99332 7.59827,-2.270157 10.29653,-2.838072 2.69826,-0.568084 9.31875,-4.594164 14.71539,-8.945705 l 9.81336,-7.9116633 -7.84965,1.020093 c -15.90015,2.0682773 -31.32182,1.4743453 -38.26745,-1.4722607 -8.8274,-3.7449574 -26.21763,-13.3304225 -36.49648,-20.118152 -4.42294,-2.920804 -8.74136,-5.312338 -9.59424,-5.312338 -0.85321,0 -5.62281,-3.220808 -10.60039,-7.157186 -19.311,-15.271361 -25.39901,-19.810978 -44.373,-33.093585 -24.50683,-17.156112 -46.61395,-27.233245 -62.9331,-28.691274 -1.62772,-0.14588 -3.23448,-0.243657 -4.83071,-0.283702 -0.74814,-0.01717 -1.49458,-0.02328 -2.23811,-0.01757 z M 470.13434,40.95875 v 0.0057 c 0,0.0013 -0.0227,0.01138 -0.0284,0.01138 0.0229,0.0045 0.0399,0.01188 0.0605,0.01188 0.0172,-0.02289 -8e-4,-0.03467 -0.0284,-0.02894 z" inkscape:connector-curvature="0"/>
    <g id="g39">
      <path sodipodi:nodetypes="cscsssc" inkscape:connector-curvature="0" id="path2398-25-5-0-2-7-4-27" d="m 234.14123,83.46378 c 0,0 -103.04628,-1.7304 -89.06155,-57.546905 5.13599,-20.4988895 -8.35411,-74.821039 -24.7752,-93.938847 0,0 40.58948,3.75228 61.08739,20.017362 6.37966,5.062308 11.72716,7.718635 20.31537,18.287019 12.29592,15.130972 24.62617,40.755328 25.40187,43.91189 6.93876,28.236804 7.0764,69.490765 7.03212,69.269481" style="fill:#ffffff;fill-opacity:1;stroke:#006680;stroke-width:10.2976141;stroke-linecap:butt;stroke-linejoin:miter;stroke-miterlimit:4;stroke-dasharray:none;stroke-opacity:1"/>
      <path sodipodi:nodetypes="csccc" inkscape:connector-curvature="0" id="path2375-4-0-6-5-0-0-61" d="M 239.60017,98.910774 C 182.23124,-12.26834 210.53613,-10.116024 222.72576,-72.38038 c 2.32812,-11.891857 8.55777,-37.82154 9.12511,-40.70498 4.9924,6.51181 109.80519,127.293161 7.74913,211.996134 z" style="fill:#ffffff;fill-opacity:1;stroke:#006680;stroke-width:10.2976141;stroke-linecap:butt;stroke-linejoin:miter;stroke-miterlimit:4;stroke-dasharray:none;stroke-opacity:1"/>
      <path sodipodi:nodetypes="cscsc" inkscape:connector-curvature="0" id="path2377-4-74-3-3-4-9-3-3" d="m 91.627567,-8.2995244 c 0,0 68.168153,-15.4431616 108.673303,43.0375654 46.72131,67.455729 40.06127,64.947571 40.06127,64.947571 0,0 -107.34583,-1.186228 -129.91654,-59.42742 z" style="fill:#ffffff;fill-opacity:1;stroke:#006680;stroke-width:10.2976141;stroke-linecap:butt;stroke-linejoin:miter;stroke-miterlimit:4;stroke-dasharray:none;stroke-opacity:1"/>
      <path sodipodi:nodetypes="csscscc" inkscape:connector-curvature="0" id="path2394-43-6-2-7-3-9-2" d="m 239.61894,98.993898 c 0,0 -14.17347,-47.154151 8.03093,-69.941857 C 269.85428,6.2643922 283.087,3.6915331 317.86639,6.1616449 c 23.88995,1.6967036 50.18348,-46.5684459 52.74736,-50.5668379 0,0 0.98537,79.162685 -32.03067,109.232235 -31.65682,28.831548 -35.72735,29.933793 -35.72735,29.933793 -26.29416,11.523205 -40.25955,7.837225 -63.23679,4.233063 z" style="fill:#ffffff;fill-opacity:1;stroke:#006680;stroke-width:10.2976141;stroke-linecap:butt;stroke-linejoin:miter;stroke-miterlimit:4;stroke-dasharray:none;stroke-opacity:1"/>
      <path sodipodi:nodetypes="cscsccc" inkscape:connector-curvature="0" id="path2460-07-1-0-4-6-1-1" d="m 241.56261,99.333262 c -2.6303,2.454948 -29.06399,-82.823716 34.77802,-130.311109 25.2743,-18.799669 40.36042,-47.367026 40.36042,-47.367026 0,0 10.42009,14.986119 7.34425,59.767814 -0.99955,14.5532759 -7.67767,27.5503532 -13.92495,42.672629 v 0 C 298.53966,50.318218 273.8696,77.052599 240.36214,99.685612" style="fill:#ffffff;fill-opacity:1;stroke:#006680;stroke-width:10.2976141;stroke-linecap:butt;stroke-linejoin:miter;stroke-miterlimit:4;stroke-dasharray:none;stroke-opacity:1"/>
      <path sodipodi:nodetypes="cscsc" inkscape:connector-curvature="0" id="path2377-86-0-6-4-0-9-5" d="m 241.56261,99.333262 c 0,0 24.53641,-49.730786 106.44742,-54.604361 43.00867,-2.558957 73.24773,15.972115 73.24773,15.972115 0,0 -68.09166,64.533034 -125.07111,51.309244 z" style="fill:#ffffff;fill-opacity:1;stroke:#006680;stroke-width:10.2976141;stroke-linecap:butt;stroke-linejoin:miter;stroke-miterlimit:4;stroke-dasharray:none;stroke-opacity:1"/>
      <path sodipodi:nodetypes="cscccsc" inkscape:connector-curvature="0" id="path2396-8-63-1-3-6-6-9" d="m 236.64344,99.157173 c 0,0 -22.00737,-7.343 -55.1316,8.188667 -33.12422,15.53183 -30.46904,33.7415 -30.46904,33.7415 0.17849,18.08445 -11.2121,31.10738 -23.64115,43.67585 l -12.93174,11.18063 c 0,0 61.07229,25.47413 96.98963,-40.81333 29.78568,-54.97119 25.1839,-55.973374 25.1839,-55.973317 z" style="fill:#ffffff;fill-opacity:1;stroke:#006680;stroke-width:10.2976141;stroke-linecap:butt;stroke-linejoin:miter;stroke-miterlimit:4;stroke-dasharray:none;stroke-opacity:1"/>
    </g>
    <g id="g4665" transform="matrix(5.7208971,0,0,5.7208971,-346.01064,-430.84387)">
      <ellipse ry="4.4535398" rx="4.5480337" cy="56.46175" cx="91.137428" id="path2634-9-4-0-3-2-6-3-1" style="opacity:1;fill:none;fill-opacity:1;stroke:#dcbb11;stroke-width:1.5659951;stroke-miterlimit:4;stroke-dasharray:none;stroke-opacity:1;paint-order:stroke fill markers"/>
      <circle r="2.5287344" cy="63.265339" cx="121.659" id="path2634-9-4-0-3-2-6-7-3-4" style="opacity:1;fill:none;fill-opacity:1;stroke:#dcbb11;stroke-width:1.27999997;stroke-miterlimit:4;stroke-dasharray:none;stroke-opacity:1;paint-order:stroke fill markers"/>
      <circle r="2.5287344" cy="99.362045" cx="105.8785" id="path2634-9-4-0-3-2-6-7-5-8-9" style="opacity:1;fill:none;fill-opacity:1;stroke:#dcbb11;stroke-width:1.27999997;stroke-miterlimit:4;stroke-dasharray:none;stroke-opacity:1;paint-order:stroke fill markers"/>
    </g>
  </g>
</svg>